<svg width="40" height="40" fill="none" xmlns="http://www.w3.org/2000/svg"><path d="M7.943 31.25H36.25v-30H7.865a4.755 4.755 0 00-4.74 4.74v27.659c0 2.765 2.17 5.101 4.74 5.101H36.25v-2.5H7.865c-1.173 0-2.24-1.24-2.24-2.602 0-1.3 1.061-2.398 2.318-2.398zM28.125 3.776v13.501l-3.781-3.32-3.719 3.3V3.777h7.5zm-10-.026v16.875h2.472l3.756-3.333 3.796 3.333h2.476V3.75h3.125v25H10.631l-.006-25h7.5zm-10.26 0h.26l.006 25h-.189c-.812 0-1.611.212-2.317.616V6.009a2.252 2.252 0 012.24-2.259z" fill="#D7B46A"/></svg>