<svg width="45" height="51" fill="none" xmlns="http://www.w3.org/2000/svg"><path d="M42.89 31.875a.664.664 0 00.498-.233.854.854 0 00.206-.564v-3.187a.854.854 0 00-.206-.564.664.664 0 00-.497-.233h-3.093a5.072 5.072 0 01-2.555-.703 5.867 5.867 0 01-1.99-1.948c-.724-1.148-1.739-2.02-2.91-2.504v-2.017a.854.854 0 00-.205-.564.664.664 0 00-.497-.233h-2.813a.664.664 0 00-.497.233.854.854 0 00-.206.564v2.017c-1.17.483-2.185 1.356-2.91 2.504a5.865 5.865 0 01-1.99 1.948 5.072 5.072 0 01-2.555.703h-3.092a.664.664 0 00-.497.233.854.854 0 00-.206.564v3.187c0 .212.074.414.206.564.132.149.31.233.497.233h2.378l-1.406 3.188h-.972a.664.664 0 00-.497.233.854.854 0 00-.206.563v.399c0 1.373.482 2.691 1.339 3.662.857.972 2.02 1.517 3.231 1.517 1.212 0 2.375-.545 3.232-1.517.857-.97 1.339-2.288 1.339-3.662v-.399a.854.854 0 00-.206-.563.664.664 0 00-.497-.233h-.972l-1.407-3.188h2.378c.128 0 .253-.04.362-.114l2.31-1.57a3.81 3.81 0 01.141-.092V42.79l-1.08 1.835H24.61a.643.643 0 00-.37.119.769.769 0 00-.259.322l-1.406 3.187a.887.887 0 00.031.775.75.75 0 00.256.277.64.64 0 00.342.101h14.063c.12 0 .237-.035.342-.1a.75.75 0 00.256-.278.887.887 0 00.03-.775l-1.406-3.188a.768.768 0 00-.259-.321.643.643 0 00-.37-.119h-2.436l-1.08-1.835V30.1c.048.029.095.06.142.09l2.31 1.571a.635.635 0 00.361.114h2.378l-1.406 3.188h-.972a.664.664 0 00-.497.233.854.854 0 00-.206.563v.399c0 1.373.482 2.691 1.339 3.662.857.972 2.02 1.517 3.231 1.517 1.212 0 2.375-.545 3.232-1.517.857-.97 1.339-2.288 1.339-3.662v-.399a.854.854 0 00-.206-.563.664.664 0 00-.497-.233h-.972l-1.406-3.188h2.378zM29.532 20.719h1.407v.843a5.365 5.365 0 00-1.407 0v-.843zm-8.086 19.125c-.778-.001-1.528-.327-2.108-.915-.58-.587-.949-1.397-1.036-2.273h6.289c-.087.876-.456 1.686-1.036 2.273-.58.588-1.33.914-2.109.915zm-1.323-4.782l1.323-2.999 1.324 3h-2.647zm16.006 12.75H24.341l.703-1.593h10.38l.704 1.593zm-5.072-4.339l.677 1.152h-2.997l.677-1.152a.875.875 0 00.118-.442V29.55c.466-.086.94-.086 1.407 0v13.482c0 .157.04.311.118.442zm2.152-14.649a5.278 5.278 0 00-2.974-.933 5.278 5.278 0 00-2.974.933l-2.142 1.457H18.28v-1.593h2.39a6.349 6.349 0 003.198-.88 7.34 7.34 0 002.49-2.439 4.995 4.995 0 011.696-1.662 4.317 4.317 0 012.18-.598c.757 0 1.504.205 2.178.598a4.993 4.993 0 011.697 1.662 7.34 7.34 0 002.49 2.439 6.36 6.36 0 003.198.88h2.39v1.593H35.35l-2.143-1.457zm5.815 11.02c-.778-.001-1.528-.327-2.108-.915-.58-.587-.949-1.397-1.036-2.273h6.29c-.088.876-.457 1.686-1.037 2.273-.58.588-1.33.914-2.109.915zM37.7 35.062l1.323-2.999 1.324 3H37.7z" fill="#2C3661"/><path d="M30.234 27.094c.777 0 1.407-.714 1.407-1.594 0-.88-.63-1.594-1.407-1.594-.776 0-1.406.714-1.406 1.594 0 .88.63 1.594 1.406 1.594zM13.36 7.969h7.03v1.593h-7.03V7.97zm-3.516 0h1.406v1.593H9.844V7.97zm4.219 5.578h6.328v1.594h-6.328v-1.594zm-7.735 0h6.328v1.594H6.328v-1.594zm11.25 5.578h9.14v1.594h-9.14v-1.594zm-7.031 0h5.625v1.594h-5.625v-1.594zm-4.219 0h2.813v1.594H6.328v-1.594zm0 5.578h9.14v1.594h-9.14v-1.594zm4.922 5.578h4.219v1.594H11.25v-1.594zm-4.922 0h2.813v1.594H6.328v-1.594zm0 5.579h9.14v1.593h-9.14V35.86zm5.625 5.578h6.328v1.593h-6.328v-1.593zm-5.625 0h4.219v1.593H6.328v-1.593z" fill="#2C3661"/><path d="M3.516 49.406h17.578v-1.593H3.516a.665.665 0 01-.497-.234.855.855 0 01-.207-.563V3.984c0-.21.075-.413.207-.563a.665.665 0 01.497-.233H22.74c.156 0 .31.019.462.057v7.911c.001 1.057.372 2.07 1.031 2.816.66.747 1.553 1.167 2.485 1.169h4.218v-1.594H26.72c-.56 0-1.096-.253-1.491-.701a2.564 2.564 0 01-.619-1.69V4.315l8.523 9.659c.197.221.352.485.459.775.105.29.16.601.159.915v5.852h1.406v-5.852a4.424 4.424 0 00-.266-1.525 4.03 4.03 0 00-.764-1.292l-8.9-10.087a3.5 3.5 0 00-1.14-.866 3.139 3.139 0 00-1.346-.301H3.516c-.56 0-1.096.253-1.491.7a2.564 2.564 0 00-.619 1.69v43.032c0 .634.223 1.241.619 1.69.395.447.931.7 1.49.7z" fill="#2C3661"/></svg>