<svg width="40" height="40" fill="none" xmlns="http://www.w3.org/2000/svg"><path d="M3.45 7.667c1.333-5.767 10.016-5.767 11.333 0 .783 3.383-1.367 6.25-3.233 8.033-1.367 1.3-3.517 1.283-4.884 0-1.85-1.783-4-4.65-3.216-8.033zm21.666 20c1.334-5.767 10.067-5.767 11.4 0 .784 3.383-1.366 6.25-3.25 8.033-1.366 1.3-3.533 1.283-4.9 0-1.883-1.783-4.033-4.65-3.25-8.033z" stroke="#000" stroke-width="2"/><path d="M20 8.333h4.466c3.084 0 4.517 3.817 2.2 5.85L13.35 25.833c-2.317 2.017-.883 5.834 2.183 5.834H20M9.144 9.167h.02m21.646 20h.02" stroke="#000" stroke-width="2" stroke-linecap="round" stroke-linejoin="round"/></svg>