<svg width="98" height="98" fill="none" xmlns="http://www.w3.org/2000/svg"><path d="M84.58 20.987a6.132 6.132 0 00-5.018-2.612H9.188A6.132 6.132 0 003.061 24.5v47.469h7.864a13.012 13.012 0 0025.617 0h23.383a13.012 13.012 0 0025.617 0h9.394V37.233a4.572 4.572 0 00-.83-2.635l-9.528-13.61zM34.452 24.5h27.563v18.375H34.453V24.5zm-25.266 0h19.141v18.375H9.188V24.5zm14.547 52.063a6.89 6.89 0 116.891-6.891 6.898 6.898 0 01-6.89 6.89zm49 0a6.89 6.89 0 116.891-6.891 6.898 6.898 0 01-6.89 6.89zm16.079-10.72h-3.638a13.015 13.015 0 00-24.88 0h-24.12a13.015 13.015 0 00-24.88 0H9.187V49h79.624v16.844zm0-22.968H68.14V24.5h11.42l9.251 13.215v5.16z" fill="#fff"/></svg>