<svg width="60" height="60" fill="none" xmlns="http://www.w3.org/2000/svg"><path d="M14.531 15.938H4.22a2.346 2.346 0 00-2.344 2.343v37.5a2.346 2.346 0 002.344 2.344h10.31a2.346 2.346 0 002.344-2.344v-37.5a2.346 2.346 0 00-2.344-2.343zm-1.406 38.437h-7.5V19.687h7.5v34.688zm22.031-26.25H24.844a2.346 2.346 0 00-2.344 2.344V55.78a2.346 2.346 0 002.344 2.344h10.312A2.346 2.346 0 0037.5 55.78V30.47a2.346 2.346 0 00-2.344-2.344zm-1.406 26.25h-7.5v-22.5h7.5v22.5zm22.031-52.5H45.47a2.346 2.346 0 00-2.344 2.344V55.78a2.346 2.346 0 002.344 2.344h10.31a2.346 2.346 0 002.344-2.344V4.22a2.346 2.346 0 00-2.344-2.344zm-1.406 52.5h-7.5V5.625h7.5v48.75z" fill="#D7B46A"/></svg>