<svg width="24" height="24" fill="none" xmlns="http://www.w3.org/2000/svg"><g clip-path="url(#clip0_132_156)"><path d="M17.496 14.383c-.3-.152-1.765-.867-2.04-.97-.273-.097-.472-.148-.671.153-.195.293-.77.964-.945 1.16-.176.196-.348.211-.645.078-.3-.152-1.261-.465-2.402-1.488-.89-.793-1.484-1.769-1.66-2.07-.176-.297-.02-.465.129-.613.136-.137.3-.344.453-.524.145-.18.191-.3.297-.495.097-.211.047-.376-.027-.524-.074-.149-.672-1.62-.922-2.207-.239-.582-.488-.508-.672-.508-.172-.016-.371-.016-.57-.016a1.13 1.13 0 00-.797.36c-.274.3-1.047 1.019-1.047 2.472 0 1.457 1.07 2.867 1.218 3.078.153.195 2.106 3.195 5.102 4.484.715.301 1.27.481 1.703.63.715.226 1.367.195 1.883.12.57-.093 1.765-.723 2.016-1.425.254-.707.254-1.293.18-1.426-.075-.136-.27-.21-.57-.343l-.013.074zm-5.434 7.367h-.015c-1.774 0-3.528-.48-5.06-1.38l-.359-.214-3.75.977 1.008-3.649-.242-.375a9.874 9.874 0 01-1.516-5.258c0-5.445 4.458-9.886 9.942-9.886a9.866 9.866 0 017.023 2.91 9.793 9.793 0 012.91 6.992c-.007 5.441-4.46 9.883-9.937 9.883h-.004zm8.457-18.3C18.238 1.245 15.238 0 12.047 0 5.463 0 .104 5.336.1 11.894c0 2.094.547 4.137 1.594 5.946L0 24l6.336-1.652a12.097 12.097 0 005.711 1.449h.004c6.586 0 11.945-5.337 11.949-11.899 0-3.175-1.238-6.164-3.496-8.41l.015-.039z" fill="#D7B46A"/></g><defs><clipPath id="clip0_132_156"><path fill="#fff" d="M0 0h24v24H0z"/></clipPath></defs></svg>