<svg width="38" height="38" viewBox="0 0 38 38" fill="none" xmlns="http://www.w3.org/2000/svg">
<path d="M7.5456 29.6875H34.4375V1.1875H7.47138C6.27839 1.19134 5.13535 1.66695 4.29178 2.51053C3.4482 3.3541 2.97259 4.49714 2.96875 5.69013V31.9326H2.96957C2.96957 31.9438 2.96875 31.9549 2.96875 31.9662C2.96875 34.5936 5.0307 36.8127 7.47138 36.8127H34.4375V34.4375H7.47138C6.35787 34.4375 5.34375 33.2596 5.34375 31.966C5.34375 30.731 6.35201 29.6875 7.5456 29.6875ZM26.7188 3.58721V16.4134L23.1266 13.2598L19.5938 16.3949V3.58721H26.7188ZM17.2188 3.5625V19.5938H19.5671L23.1352 16.4277L26.7414 19.5938H29.0938V3.5625H32.0625V27.3125H10.0997L10.0938 3.5625H17.2188ZM7.47138 3.5625H7.71875L7.72439 27.3125H7.5453C6.77304 27.3126 6.01419 27.5143 5.34375 27.8976V5.70868C5.34193 5.14214 5.56492 4.598 5.96379 4.19565C6.36266 3.7933 6.90484 3.5656 7.47138 3.5625Z" fill="white"/>
</svg>
