<svg width="40" height="40" viewBox="0 0 40 40" fill="none" xmlns="http://www.w3.org/2000/svg">
<path d="M7.94273 31.25H36.25V1.25H7.86461C6.60883 1.25404 5.40564 1.75468 4.51766 2.64266C3.62968 3.53064 3.12904 4.73383 3.125 5.98961V33.6133H3.12586C3.12586 33.6251 3.125 33.6367 3.125 33.6487C3.125 36.4143 5.29547 38.7502 7.86461 38.7502H36.25V36.25H7.86461C6.6925 36.25 5.625 35.0101 5.625 33.6484C5.625 32.3484 6.68633 31.25 7.94273 31.25ZM28.125 3.77602V17.2773L24.3438 13.9577L20.625 17.2578V3.77602H28.125ZM18.125 3.75V20.625H20.597L24.3528 17.2923L28.1488 20.625H30.625V3.75H33.75V28.75H10.6313L10.625 3.75H18.125ZM7.86461 3.75H8.125L8.13094 28.75H7.94242C7.12952 28.7502 6.33073 28.9624 5.625 29.3659V6.00914C5.62309 5.41277 5.85781 4.84 6.27767 4.41648C6.69753 3.99295 7.26825 3.75327 7.86461 3.75Z" fill="#D7B46A"/>
</svg>
