<svg width="40" height="40" viewBox="0 0 40 40" fill="none" xmlns="http://www.w3.org/2000/svg">
<path d="M6.66672 13.3333H5.00005M35 13.3333H33.3334M20 5.00001V8.33334M17.5 8.33334H22.5M10 25H15M25 25H30M25.85 4.71667H14.15C10 4.71667 9.08338 6.78334 8.55005 9.31668L6.66672 18.3333H33.3334L31.4501 9.31668C30.9167 6.78334 30 4.71667 25.85 4.71667ZM36.65 33.0333C36.8334 34.9833 35.2667 36.6667 33.2667 36.6667H30.1334C28.3334 36.6667 28.0834 35.9 27.7667 34.95L27.4334 33.95C26.9667 32.5833 26.6667 31.6667 24.2667 31.6667H15.7334C13.3334 31.6667 12.9834 32.7 12.5667 33.95L12.2334 34.95C11.9167 35.9 11.6667 36.6667 9.86672 36.6667H6.73338C4.73338 36.6667 3.16672 34.9833 3.35005 33.0333L4.28338 22.8833C4.51672 20.3833 5.00005 18.3333 9.36672 18.3333H30.6334C35 18.3333 35.4834 20.3833 35.7167 22.8833L36.65 33.0333Z" stroke="black" stroke-width="2" stroke-linecap="round" stroke-linejoin="round"/>
</svg>
