<svg width="35" height="40" viewBox="0 0 35 40" fill="none" xmlns="http://www.w3.org/2000/svg">
<path d="M33.3594 25C33.5044 25 33.6435 24.9341 33.7461 24.817C33.8486 24.6998 33.9062 24.5408 33.9062 24.375V21.875C33.9062 21.7092 33.8486 21.5502 33.7461 21.433C33.6435 21.3159 33.5044 21.25 33.3594 21.25H30.9544C30.263 21.2492 29.5818 21.0602 28.9671 20.6987C28.3525 20.3371 27.822 19.8134 27.4196 19.171C26.8557 18.2705 26.0667 17.586 25.1562 17.2073V15.625C25.1562 15.4592 25.0986 15.3002 24.9961 15.183C24.8935 15.0659 24.7544 15 24.6094 15H22.4219C22.2768 15 22.1377 15.0659 22.0352 15.183C21.9326 15.3002 21.875 15.4592 21.875 15.625V17.2073C20.9645 17.586 20.1756 18.2705 19.6117 19.1711C19.2093 19.8135 18.6788 20.3372 18.0641 20.6987C17.4494 21.0602 16.7682 21.2492 16.0769 21.25H13.6719C13.5268 21.25 13.3877 21.3159 13.2852 21.433C13.1826 21.5502 13.125 21.7092 13.125 21.875V24.375C13.125 24.5408 13.1826 24.6998 13.2852 24.817C13.3877 24.9341 13.5268 25 13.6719 25H15.5214L14.4277 27.5H13.6719C13.5268 27.5 13.3877 27.5659 13.2852 27.683C13.1826 27.8002 13.125 27.9592 13.125 28.125V28.4375C13.125 29.5149 13.4995 30.5483 14.1661 31.3102C14.8328 32.072 15.7369 32.5 16.6797 32.5C17.6224 32.5 18.5266 32.072 19.1933 31.3102C19.8598 30.5483 20.2344 29.5149 20.2344 28.4375V28.125C20.2344 27.9592 20.1767 27.8002 20.0742 27.683C19.9717 27.5659 19.8326 27.5 19.6875 27.5H18.9317L17.838 25H19.6875C19.7866 25 19.8839 24.9692 19.9689 24.9109L21.7654 23.6791C21.8015 23.6542 21.8381 23.6303 21.875 23.6072V33.5608L21.0355 35H19.1406C19.039 35 18.9395 35.0323 18.8531 35.0934C18.7667 35.1544 18.6969 35.2416 18.6515 35.3455L17.5578 37.8455C17.5161 37.9408 17.4964 38.0466 17.5005 38.153C17.5047 38.2595 17.5327 38.363 17.5817 38.4536C17.6307 38.5442 17.6991 38.619 17.7805 38.6709C17.862 38.7227 17.9536 38.75 18.0469 38.75H28.9844C29.0776 38.75 29.1693 38.7227 29.2507 38.6709C29.3321 38.619 29.4005 38.5442 29.4496 38.4536C29.4986 38.363 29.5265 38.2595 29.5307 38.153C29.5349 38.0466 29.5152 37.9408 29.4735 37.8455L28.3797 35.3455C28.3343 35.2416 28.2646 35.1544 28.1781 35.0934C28.0917 35.0323 27.9922 35 27.8906 35H25.9958L25.1562 33.5608V23.6073C25.1931 23.6304 25.2297 23.6542 25.2659 23.6791L27.0624 24.9109C27.1474 24.9692 27.2446 25 27.3438 25H29.1933L28.0995 27.5H27.3438C27.1987 27.5 27.0596 27.5659 26.957 27.683C26.8545 27.8002 26.7969 27.9592 26.7969 28.125V28.4375C26.7969 29.5149 27.1714 30.5483 27.838 31.3102C28.5046 32.072 29.4088 32.5 30.3516 32.5C31.2943 32.5 32.1985 32.072 32.8651 31.3102C33.5317 30.5483 33.9062 29.5149 33.9062 28.4375V28.125C33.9062 27.9592 33.8486 27.8002 33.7461 27.683C33.6435 27.5659 33.5044 27.5 33.3594 27.5H32.6036L31.5098 25H33.3594ZM22.9688 16.25H24.0625V16.9113C23.6992 16.8629 23.3321 16.8629 22.9688 16.9113V16.25ZM16.6797 31.25C16.0746 31.2491 15.4908 30.9938 15.0398 30.5328C14.5887 30.0718 14.3019 29.4372 14.2339 28.75H19.1255C19.0575 29.4372 18.7707 30.0718 18.3196 30.5328C17.8685 30.9938 17.2848 31.2491 16.6797 31.25ZM15.6505 27.5L16.6797 25.1476L17.7089 27.5H15.6505ZM28.0995 37.5H18.9317L19.4786 36.25H27.5527L28.0995 37.5ZM24.1544 34.0967L24.6813 35H22.35L22.8769 34.0967C22.9368 33.994 22.9688 33.8734 22.9688 33.75V23.176C23.3309 23.108 23.7003 23.108 24.0625 23.176V33.75C24.0625 33.8734 24.0945 33.994 24.1544 34.0967ZM25.8286 22.6071C25.1299 22.128 24.3304 21.875 23.5156 21.875C22.7008 21.875 21.9013 22.128 21.2026 22.6071L19.536 23.75H14.2188V22.5H16.0769C16.9423 22.499 17.795 22.2624 18.5644 21.8098C19.3339 21.3573 19.998 20.7018 20.5017 19.8976C20.8443 19.3494 21.2966 18.9025 21.8208 18.5941C22.345 18.2859 22.926 18.125 23.5156 18.125C24.1052 18.125 24.6862 18.2859 25.2104 18.5941C25.7346 18.9024 26.1869 19.3493 26.5296 19.8975C27.0333 20.7017 27.6973 21.3573 28.4668 21.8098C29.2363 22.2624 30.089 22.499 30.9544 22.5H32.8125V23.75H27.4952L25.8286 22.6071ZM30.3516 31.25C29.7464 31.2491 29.1627 30.9938 28.7117 30.5328C28.2606 30.0718 27.9738 29.4372 27.9057 28.75H32.7974C32.7294 29.4372 32.4425 30.0718 31.9914 30.5328C31.5404 30.9938 30.9567 31.2491 30.3516 31.25ZM29.3223 27.5L30.3516 25.1476L31.3808 27.5H29.3223Z" fill="#D7B46A"/>
<path d="M23.5156 21.25C24.1197 21.25 24.6094 20.6904 24.6094 20C24.6094 19.3096 24.1197 18.75 23.5156 18.75C22.9115 18.75 22.4219 19.3096 22.4219 20C22.4219 20.6904 22.9115 21.25 23.5156 21.25Z" fill="#D7B46A"/>
<path d="M10.3906 6.25H15.8594V7.5H10.3906V6.25Z" fill="#D7B46A"/>
<path d="M7.65625 6.25H8.75V7.5H7.65625V6.25Z" fill="#D7B46A"/>
<path d="M10.9375 10.625H15.8594V11.875H10.9375V10.625Z" fill="#D7B46A"/>
<path d="M4.92188 10.625H9.84375V11.875H4.92188V10.625Z" fill="#D7B46A"/>
<path d="M13.6719 15H20.7812V16.25H13.6719V15Z" fill="#D7B46A"/>
<path d="M8.20312 15H12.5781V16.25H8.20312V15Z" fill="#D7B46A"/>
<path d="M4.92188 15H7.10938V16.25H4.92188V15Z" fill="#D7B46A"/>
<path d="M4.92188 19.375H12.0312V20.625H4.92188V19.375Z" fill="#D7B46A"/>
<path d="M8.75 23.75H12.0312V25H8.75V23.75Z" fill="#D7B46A"/>
<path d="M4.92188 23.75H7.10938V25H4.92188V23.75Z" fill="#D7B46A"/>
<path d="M4.92188 28.125H12.0312V29.375H4.92188V28.125Z" fill="#D7B46A"/>
<path d="M9.29688 32.5H14.2188V33.75H9.29688V32.5Z" fill="#D7B46A"/>
<path d="M4.92188 32.5H8.20312V33.75H4.92188V32.5Z" fill="#D7B46A"/>
<path d="M2.73438 38.75H16.4062V37.5H2.73438C2.58938 37.4999 2.45038 37.4339 2.34786 37.3167C2.24534 37.1995 2.18766 37.0407 2.1875 36.875V3.12501C2.18766 2.95931 2.24534 2.80045 2.34786 2.68329C2.45038 2.56611 2.58938 2.50021 2.73438 2.50001H17.6876C17.8085 2.50011 17.929 2.51532 18.0469 2.54539V8.75001C18.0477 9.57853 18.336 10.3728 18.8487 10.9587C19.3613 11.5445 20.0563 11.8741 20.7812 11.875H24.0625V10.625H20.7812C20.3463 10.6245 19.9293 10.4267 19.6217 10.0752C19.3141 9.72368 19.1411 9.24712 19.1406 8.75001V3.38396L25.7694 10.9596C25.9223 11.1334 26.0434 11.34 26.1259 11.5676C26.2084 11.7952 26.2505 12.0392 26.25 12.2856V16.875H27.3438V12.2856C27.3447 11.875 27.2744 11.4683 27.137 11.089C26.9995 10.7097 26.7976 10.3653 26.5429 10.0758L19.6212 2.16539C19.3679 1.87426 19.0665 1.64346 18.7346 1.48633C18.4028 1.32921 18.0469 1.24888 17.6876 1.25001H2.73438C2.2994 1.25058 1.8824 1.44831 1.57483 1.79982C1.26726 2.15132 1.09425 2.62791 1.09375 3.12501V36.875C1.09425 37.3721 1.26726 37.8487 1.57483 38.2003C1.8824 38.5517 2.2994 38.7495 2.73438 38.75Z" fill="#D7B46A"/>
</svg>
