<svg width="38" height="51" viewBox="0 0 38 51" fill="none" xmlns="http://www.w3.org/2000/svg">
<g clip-path="url(#clip0_82_148)">
<path d="M35.3343 0H9.92537C9.91562 0 9.90609 0.00110151 9.89633 0.00143197C9.88692 0.00176242 9.87751 0.00220302 9.86809 0.00275378C9.83168 0.00506695 9.79572 0.0090324 9.76078 0.0157516C9.76022 0.0158618 9.75965 0.0158618 9.75919 0.0159719C9.72131 0.0232419 9.68467 0.033486 9.64882 0.0454924C9.64247 0.0475853 9.63623 0.0500086 9.62988 0.0522117C9.59596 0.0644384 9.56296 0.0782073 9.53119 0.0943996C9.52927 0.0953909 9.52722 0.096162 9.5253 0.0971534C9.49206 0.114337 9.46064 0.134054 9.43024 0.155203C9.42343 0.15994 9.41685 0.164896 9.41016 0.169853C9.3801 0.192214 9.35095 0.215676 9.32429 0.241562L9.32384 0.241892L0.249212 9.05399L0.248872 9.05432C0.222215 9.08031 0.19794 9.10851 0.175027 9.1377C0.169922 9.14431 0.164818 9.15081 0.159827 9.15742C0.138048 9.18683 0.117857 9.21734 0.100162 9.2494C0.0990272 9.2516 0.0980055 9.2538 0.0968712 9.256C0.0805369 9.28641 0.0664714 9.31802 0.0539938 9.35051C0.0514983 9.35701 0.0490033 9.3634 0.0466212 9.37001C0.0343705 9.40449 0.023934 9.43974 0.0164474 9.4762C0.0162206 9.47752 0.0161075 9.47895 0.0157672 9.48027C0.00918805 9.51343 0.00521815 9.54735 0.00272263 9.58172C0.00204203 9.59141 0.00158824 9.601 0.00124794 9.61069C0.00113451 9.61994 0 9.62898 0 9.63823V48.4114C0 49.8388 1.19581 51 2.66567 51H35.3343C36.8042 51 38 49.8388 38 48.4114V2.58855C38 1.16121 36.8042 0 35.3343 0ZM9.07463 2.82053V7.87581C9.07463 8.39209 8.64211 8.81209 8.11045 8.81209H2.90456L9.07463 2.82053ZM36.2985 48.4114C36.2985 48.9277 35.866 49.3477 35.3343 49.3477H2.66567C2.13401 49.3477 1.70149 48.9277 1.70149 48.4114V10.4644H8.11045C9.58031 10.4644 10.7761 9.30315 10.7761 7.87581V1.65227H35.3343C35.866 1.65227 36.2985 2.07227 36.2985 2.58855V48.4114Z" fill="#D7B46A"/>
<path d="M8.11051 23.6825H29.8896C30.3595 23.6825 30.7404 23.3127 30.7404 22.8563C30.7404 22.4 30.3595 22.0302 29.8896 22.0302H8.11051C7.64067 22.0302 7.25977 22.4 7.25977 22.8563C7.25977 23.3127 7.64067 23.6825 8.11051 23.6825Z" fill="#D7B46A"/>
<path d="M8.11051 28.0885H29.8896C30.3595 28.0885 30.7404 27.7188 30.7404 27.2624C30.7404 26.8061 30.3595 26.4363 29.8896 26.4363H8.11051C7.64067 26.4363 7.25977 26.8061 7.25977 27.2624C7.25977 27.7188 7.64067 28.0885 8.11051 28.0885Z" fill="#D7B46A"/>
<path d="M8.11051 32.4946H19.0001C19.4699 32.4946 19.8508 32.1248 19.8508 31.6685C19.8508 31.2121 19.4699 30.8423 19.0001 30.8423H8.11051C7.64067 30.8423 7.25977 31.2121 7.25977 31.6685C7.25977 32.1248 7.64067 32.4946 8.11051 32.4946Z" fill="#D7B46A"/>
<path d="M19.8508 36.0745C19.8508 35.6182 19.4699 35.2484 19.0001 35.2484H8.11051C7.64067 35.2484 7.25977 35.6182 7.25977 36.0745C7.25977 36.5309 7.64067 36.9007 8.11051 36.9007H19.0001C19.4699 36.9007 19.8508 36.5309 19.8508 36.0745Z" fill="#D7B46A"/>
<path d="M23.4808 14.2646C23.4808 13.8082 23.0999 13.4384 22.63 13.4384C22.1602 13.4384 21.7793 13.8082 21.7793 14.2646C21.7793 15.8751 23.3172 17.1764 25.4091 17.4571V17.5691C25.4091 18.0254 25.7901 18.3952 26.2599 18.3952C26.7297 18.3952 27.1106 18.0254 27.1106 17.5691V17.4571C29.2026 17.1763 30.7405 15.875 30.7405 14.2646C30.7405 12.6541 29.2026 11.3527 27.1106 11.072V7.90784C28.1354 8.11547 29.039 8.67868 29.039 9.4179C29.039 9.87426 29.4199 10.244 29.8897 10.244C30.3596 10.244 30.7405 9.87426 30.7405 9.4179C30.7405 7.80738 29.2026 6.50605 27.1106 6.22539V6.11337C27.1106 5.65701 26.7297 5.28723 26.2599 5.28723C25.7901 5.28723 25.4091 5.65701 25.4091 6.11337V6.22539C23.3172 6.50616 21.7793 7.80749 21.7793 9.4179C21.7793 11.0283 23.3172 12.3297 25.4091 12.6104V15.7746C24.3844 15.567 23.4808 15.0039 23.4808 14.2646ZM29.039 14.2646C29.039 15.0039 28.1354 15.567 27.1106 15.7746V12.7545C28.1354 12.9621 29.039 13.5252 29.039 14.2646ZM23.4808 9.4179C23.4808 8.67857 24.3844 8.11547 25.4091 7.90784V10.928C24.3844 10.7203 23.4808 10.1572 23.4808 9.4179Z" fill="#D7B46A"/>
<path d="M31.564 35.3021C31.1549 35.0777 30.6359 35.2177 30.4049 35.6151L28.6555 38.6218L28.4158 38.4427C28.2138 38.2917 27.9527 38.2364 27.7045 38.2926C27.4562 38.3486 27.2468 38.5096 27.1339 38.7314L26.2502 40.4691L25.9661 40.1528C25.5494 39.6889 24.9295 39.4814 24.3066 39.599C23.6842 39.7161 23.1884 40.1333 22.9804 40.7148L22.0043 43.4428L19.6818 40.5942C19.5374 40.4171 19.3246 40.3051 19.0929 40.2844C18.8617 40.2644 18.631 40.3359 18.4556 40.4844L15.9898 42.5729C15.6357 42.8728 15.599 43.3947 15.9078 43.7385C16.2168 44.0824 16.754 44.1177 17.1082 43.8181L18.9015 42.2991L21.1191 45.0192C21.369 45.3255 21.7471 45.4996 22.1416 45.4996C22.214 45.4996 22.2869 45.4936 22.3596 45.4817C22.8291 45.4045 23.2179 45.0852 23.3741 44.6486L24.5875 41.2573C24.5918 41.2453 24.5982 41.2274 24.6303 41.2212C24.6621 41.2151 24.6753 41.2295 24.6838 41.239L25.8065 42.4893C25.9935 42.6974 26.2755 42.8012 26.5573 42.7655C26.8394 42.7299 27.0846 42.5598 27.2105 42.3121L28.1999 40.367L28.3944 40.5124C28.5898 40.6585 28.8409 40.7146 29.0826 40.6675C29.3243 40.6198 29.5328 40.4726 29.6542 40.2642L31.8861 36.4281C32.1174 36.0307 31.9731 35.5266 31.564 35.3021Z" fill="#D7B46A"/>
</g>
<defs>
<clipPath id="clip0_82_148">
<rect width="38" height="51" fill="white"/>
</clipPath>
</defs>
</svg>
