<svg width="45" height="51" viewBox="0 0 45 51" fill="none" xmlns="http://www.w3.org/2000/svg">
<path d="M42.8906 31.875C43.0771 31.875 43.256 31.791 43.3878 31.6416C43.5197 31.4922 43.5938 31.2895 43.5938 31.0781V27.8906C43.5938 27.6793 43.5197 27.4765 43.3878 27.3271C43.256 27.1777 43.0771 27.0938 42.8906 27.0938H39.7985C38.9096 27.0928 38.0338 26.8518 37.2435 26.3908C36.4532 25.9298 35.7711 25.2621 35.2537 24.443C34.5287 23.2949 33.5144 22.4222 32.3438 21.9393V19.9219C32.3438 19.7105 32.2697 19.5078 32.1378 19.3584C32.006 19.209 31.8271 19.125 31.6406 19.125H28.8281C28.6416 19.125 28.4628 19.209 28.3309 19.3584C28.1991 19.5078 28.125 19.7105 28.125 19.9219V21.9393C26.9544 22.4222 25.94 23.2949 25.215 24.4431C24.6976 25.2622 24.0156 25.9299 23.2253 26.3908C22.435 26.8518 21.5591 27.0928 20.6703 27.0938H17.5781C17.3916 27.0938 17.2128 27.1777 17.0809 27.3271C16.9491 27.4765 16.875 27.6793 16.875 27.8906V31.0781C16.875 31.2895 16.9491 31.4922 17.0809 31.6416C17.2128 31.791 17.3916 31.875 17.5781 31.875H19.9561L18.5498 35.0625H17.5781C17.3916 35.0625 17.2128 35.1465 17.0809 35.2959C16.9491 35.4453 16.875 35.648 16.875 35.8594V36.2578C16.875 37.6315 17.3566 38.9491 18.2136 39.9204C19.0707 40.8917 20.2332 41.4375 21.4453 41.4375C22.6574 41.4375 23.8199 40.8917 24.677 39.9204C25.5341 38.9491 26.0156 37.6315 26.0156 36.2578V35.8594C26.0156 35.648 25.9415 35.4453 25.8097 35.2959C25.6779 35.1465 25.499 35.0625 25.3125 35.0625H24.3408L22.9345 31.875H25.3125C25.4399 31.875 25.565 31.8358 25.6743 31.7614L27.984 30.1908C28.0305 30.1591 28.0775 30.1286 28.125 30.0992V42.79L27.0456 44.625H24.6094C24.4788 44.625 24.3508 44.6662 24.2397 44.744C24.1286 44.8218 24.0389 44.9331 23.9805 45.0655L22.5743 48.253C22.5207 48.3745 22.4953 48.5095 22.5007 48.6451C22.5061 48.7809 22.542 48.9128 22.605 49.0283C22.668 49.1439 22.756 49.2392 22.8607 49.3053C22.9654 49.3715 23.0832 49.4062 23.2031 49.4062H37.2656C37.3855 49.4062 37.5034 49.3715 37.608 49.3053C37.7127 49.2392 37.8007 49.1439 37.8637 49.0283C37.9267 48.9128 37.9627 48.7809 37.968 48.6451C37.9734 48.5095 37.9481 48.3745 37.8945 48.253L36.4882 45.0655C36.4299 44.9331 36.3401 44.8218 36.229 44.744C36.1179 44.6662 35.99 44.625 35.8594 44.625H33.4231L32.3438 42.79V30.0993C32.3911 30.1287 32.4381 30.1591 32.4847 30.1908L34.7945 31.7614C34.9037 31.8358 35.0288 31.875 35.1562 31.875H37.5342L36.128 35.0625H35.1562C34.9697 35.0625 34.7909 35.1465 34.6591 35.2959C34.5272 35.4453 34.4531 35.648 34.4531 35.8594V36.2578C34.4531 37.6315 34.9347 38.9491 35.7917 39.9204C36.6488 40.8917 37.8113 41.4375 39.0234 41.4375C40.2355 41.4375 41.3981 40.8917 42.2552 39.9204C43.1122 38.9491 43.5938 37.6315 43.5938 36.2578V35.8594C43.5938 35.648 43.5197 35.4453 43.3878 35.2959C43.256 35.1465 43.0771 35.0625 42.8906 35.0625H41.9189L40.5127 31.875H42.8906ZM29.5312 20.7188H30.9375V21.5619C30.4704 21.5002 29.9984 21.5002 29.5312 21.5619V20.7188ZM21.4453 39.8438C20.6673 39.8427 19.9168 39.5171 19.3369 38.9293C18.7569 38.3415 18.3881 37.5324 18.3007 36.6562H24.59C24.5025 37.5324 24.1337 38.3415 23.5537 38.9293C22.9738 39.5171 22.2233 39.8427 21.4453 39.8438ZM20.122 35.0625L21.4453 32.0632L22.7686 35.0625H20.122ZM36.128 47.8125H24.3408L25.0439 46.2188H35.4248L36.128 47.8125ZM31.0556 43.4733L31.7331 44.625H28.7357L29.4131 43.4733C29.4901 43.3423 29.5312 43.1885 29.5312 43.0312V29.5494C29.9969 29.4627 30.4719 29.4627 30.9375 29.5494V43.0312C30.9375 43.1885 30.9786 43.3423 31.0556 43.4733ZM33.2082 28.8241C32.3099 28.2133 31.2819 27.8906 30.2344 27.8906C29.1867 27.8906 28.1588 28.2133 27.2605 28.8241L25.1177 30.2812H18.2812V28.6875H20.6703C21.7829 28.6862 22.8792 28.3846 23.8685 27.8075C24.8578 27.2306 25.7117 26.3948 26.3593 25.3694C26.7999 24.6705 27.3814 24.1007 28.0553 23.7075C28.7293 23.3145 29.4763 23.1094 30.2344 23.1094C30.9923 23.1094 31.7394 23.3145 32.4134 23.7075C33.0874 24.1006 33.6689 24.6704 34.1095 25.3693C34.757 26.3947 35.6108 27.2305 36.6002 27.8075C37.5895 28.3846 38.6858 28.6862 39.7985 28.6875H42.1875V30.2812H35.351L33.2082 28.8241ZM39.0234 39.8438C38.2454 39.8427 37.4949 39.5171 36.915 38.9293C36.335 38.3415 35.9663 37.5324 35.8788 36.6562H42.1681C42.0806 37.5324 41.7118 38.3415 41.1318 38.9293C40.5519 39.5171 39.8014 39.8427 39.0234 39.8438ZM37.7002 35.0625L39.0234 32.0632L40.3467 35.0625H37.7002Z" fill="#2C3661"/>
<path d="M30.2344 27.0938C31.0111 27.0938 31.6406 26.3802 31.6406 25.5C31.6406 24.6198 31.0111 23.9062 30.2344 23.9062C29.4577 23.9062 28.8281 24.6198 28.8281 25.5C28.8281 26.3802 29.4577 27.0938 30.2344 27.0938Z" fill="#2C3661"/>
<path d="M13.3594 7.96875H20.3906V9.5625H13.3594V7.96875Z" fill="#2C3661"/>
<path d="M9.84375 7.96875H11.25V9.5625H9.84375V7.96875Z" fill="#2C3661"/>
<path d="M14.0625 13.5469H20.3906V15.1406H14.0625V13.5469Z" fill="#2C3661"/>
<path d="M6.32812 13.5469H12.6562V15.1406H6.32812V13.5469Z" fill="#2C3661"/>
<path d="M17.5781 19.125H26.7188V20.7188H17.5781V19.125Z" fill="#2C3661"/>
<path d="M10.5469 19.125H16.1719V20.7188H10.5469V19.125Z" fill="#2C3661"/>
<path d="M6.32812 19.125H9.14062V20.7188H6.32812V19.125Z" fill="#2C3661"/>
<path d="M6.32812 24.7031H15.4688V26.2969H6.32812V24.7031Z" fill="#2C3661"/>
<path d="M11.25 30.2812H15.4688V31.875H11.25V30.2812Z" fill="#2C3661"/>
<path d="M6.32812 30.2812H9.14062V31.875H6.32812V30.2812Z" fill="#2C3661"/>
<path d="M6.32812 35.8594H15.4688V37.4531H6.32812V35.8594Z" fill="#2C3661"/>
<path d="M11.9531 41.4375H18.2812V43.0312H11.9531V41.4375Z" fill="#2C3661"/>
<path d="M6.32812 41.4375H10.5469V43.0312H6.32812V41.4375Z" fill="#2C3661"/>
<path d="M3.51563 49.4063H21.0938V47.8125H3.51563C3.32921 47.8123 3.15049 47.7282 3.01867 47.5788C2.88686 47.4294 2.81271 47.2269 2.8125 47.0156V3.98439C2.81271 3.77312 2.88686 3.57057 3.01867 3.42119C3.15049 3.27179 3.32921 3.18776 3.51563 3.18752H22.7413C22.8967 3.18763 23.0515 3.20703 23.2031 3.24537V11.1563C23.2042 12.2126 23.5749 13.2254 24.234 13.9723C24.8931 14.7193 25.7867 15.1394 26.7188 15.1406H30.9375V13.5469H26.7188C26.1595 13.5462 25.6234 13.2941 25.2279 12.8459C24.8324 12.3977 24.61 11.7901 24.6094 11.1563V4.31455L33.1321 13.9735C33.3287 14.1951 33.4844 14.4585 33.5905 14.7487C33.6965 15.0388 33.7507 15.35 33.75 15.6641V21.5156H35.1563V15.6641C35.1575 15.1406 35.0671 14.6221 34.8904 14.1385C34.7136 13.6549 34.454 13.2158 34.1265 12.8466L25.2272 2.76087C24.9015 2.38968 24.5141 2.09541 24.0874 1.89507C23.6607 1.69474 23.2031 1.59232 22.7413 1.59377H3.51563C2.95638 1.59449 2.42023 1.84659 2.02478 2.29477C1.62933 2.74294 1.40689 3.35059 1.40625 3.98439V47.0156C1.40689 47.6495 1.62933 48.2571 2.02478 48.7053C2.42023 49.1535 2.95638 49.4056 3.51563 49.4063Z" fill="#2C3661"/>
</svg>
