<svg width="41" height="51" viewBox="0 0 41 51" fill="none" xmlns="http://www.w3.org/2000/svg">
<g clip-path="url(#clip0_82_145)">
<path d="M37.2524 38.3454L35.935 37.7859C35.9449 37.4315 35.7212 37.0976 35.3626 36.9797L34.7425 36.776C34.7134 33.5071 33.8967 31.6677 33.1741 30.0424C32.5823 28.711 32.0712 27.5591 32.0634 25.7609C32.2552 25.1893 32.4184 24.6004 32.5505 23.9964L32.7575 23.7353C34.5535 21.4712 35.6376 20.1047 35.6376 16.6879C35.6376 12.6762 34.038 8.5257 31.2489 5.30092C28.2926 1.88259 24.4752 0 20.5 0C16.5248 0 12.7074 1.88259 9.75107 5.30092C6.96196 8.5257 5.3624 12.6762 5.3624 16.6879C5.3624 20.1085 6.54402 21.5983 8.3325 23.8532L8.45092 24.0026C9.1163 27.0376 10.5614 29.6978 12.5128 31.6565C12.5127 31.6604 12.5123 31.6644 12.5123 31.6684V33.8698L11.5166 34.5242C11.2014 34.7314 10.9472 34.9976 10.7559 35.2974L5.63744 36.9796C5.27895 37.0975 5.05518 37.4312 5.06501 37.7858L3.74765 38.3453C1.47097 39.3122 0 41.5161 0 43.9601V48.4114C0 49.8388 1.17772 51 2.62534 51H38.3747C39.8223 51 41 49.8388 41 48.4114V43.9601C41 41.5161 39.529 39.3122 37.2524 38.3454ZM29.634 42.7012L31.149 44.942L28.8671 49.3477H25.8604C25.9476 48.0733 26.1645 46.5167 26.6726 45.1756C26.6845 45.1441 26.6937 45.1124 26.7016 45.0805C26.7085 45.0669 26.7154 45.0535 26.7224 45.0398L28.0232 42.4763C28.8066 40.9313 29.7469 39.076 30.376 37.8345C30.4867 37.6161 30.5631 37.3887 30.607 37.1584L33.963 38.2613C33.9673 38.3203 33.9775 38.3783 33.9941 38.4346L33.2535 40.6711L30.128 41.4415C29.8636 41.5066 29.6479 41.6944 29.5496 41.945C29.4513 42.1956 29.4828 42.4777 29.634 42.7012ZM12.1329 49.3477L9.85095 44.942L11.366 42.7012C11.5172 42.4777 11.5487 42.1956 11.4504 41.945C11.3521 41.6944 11.1364 41.5066 10.872 41.4415L7.74654 40.6711L7.0053 38.433C7.02161 38.3773 7.03156 38.3199 7.0358 38.2618L10.3929 37.1584C10.4368 37.3886 10.5132 37.6161 10.6239 37.8345C11.253 39.076 12.1933 40.9313 12.9767 42.4763L14.2775 45.0398C14.3056 45.0951 14.3331 45.149 14.3615 45.2009C14.869 46.5531 15.0802 48.1237 15.1645 49.3477H12.1329ZM16.099 45.1056C17.1894 44.0119 17.9539 43.0947 18.4758 42.3927L19.6621 45.9019V49.3477H16.8437C16.7652 48.127 16.5681 46.5555 16.099 45.1056ZM21.2949 45.5065L19.5074 40.2193C19.4865 40.1575 19.4582 40.1002 19.425 40.047C19.4208 40.0405 19.4166 40.0341 19.4123 40.0276C19.3939 39.9999 19.3742 39.9733 19.3528 39.9483C19.3512 39.9465 19.3502 39.9446 19.3486 39.9428L19.3442 39.9376C19.3428 39.9361 19.3416 39.9345 19.3402 39.933L14.188 34.0065V33.0752C16.0402 34.3852 18.198 35.1382 20.5 35.1382C22.802 35.1382 24.9598 34.3852 26.812 33.0752V34.0065L21.6514 39.9429C21.441 40.1849 21.3906 40.5247 21.5219 40.8161C21.5535 40.8864 22.2992 42.5002 24.9201 45.1249C24.462 46.5471 24.2623 48.0883 24.1816 49.3477H21.3379V45.7678C21.3379 45.679 21.3234 45.5908 21.2949 45.5065ZM9.71935 20.2127C9.71935 14.9331 14.0459 11.6293 15.8583 10.6414C17.6158 12.365 20.0384 13.7713 23.1029 14.8419C26.2032 15.925 29.2233 16.3875 30.8354 16.5231C31.1311 17.7495 31.2807 18.988 31.2807 20.2127C31.2807 20.232 31.2801 20.2513 31.2801 20.2706C31.2618 20.2694 31.2435 20.2678 31.2248 20.2678H28.3499C27.9993 19.2445 27.0171 18.5054 25.8624 18.5054H24.0749C23.1275 18.5054 22.2956 19.003 21.834 19.7469C21.4428 19.5183 20.9869 19.3866 20.5 19.3866C20.0131 19.3866 19.5572 19.5183 19.166 19.7469C18.7044 19.003 17.8725 18.5054 16.9251 18.5054H15.1376C13.9829 18.5054 13.0007 19.2445 12.6501 20.2678H9.7752C9.75655 20.2678 9.73834 20.2694 9.7199 20.2706C9.7199 20.2513 9.71935 20.232 9.71935 20.2127ZM9.80827 21.9201H12.5123V21.9752C12.5123 22.4314 12.8874 22.8013 13.3501 22.8013C13.8129 22.8013 14.188 22.4314 14.188 21.9752V21.094C14.188 20.5777 14.614 20.1577 15.1376 20.1577H15.1935V21.094C15.1935 21.5502 15.5686 21.9201 16.0313 21.9201C16.4941 21.9201 16.8692 21.5502 16.8692 21.094V20.1577H16.9251C17.4487 20.1577 17.8747 20.5777 17.8747 21.094V21.9752C17.8747 22.4314 18.2498 22.8013 18.7125 22.8013C19.1753 22.8013 19.5504 22.4314 19.5504 21.9752C19.5504 21.4589 19.9764 21.0389 20.5 21.0389C21.0236 21.0389 21.4496 21.4589 21.4496 21.9752C21.4496 22.4314 21.8247 22.8013 22.2875 22.8013C22.7502 22.8013 23.1253 22.4314 23.1253 21.9752V21.094C23.1253 20.5777 23.5513 20.1577 24.0749 20.1577H24.1308V21.094C24.1308 21.5502 24.5059 21.9201 24.9687 21.9201C25.4314 21.9201 25.8065 21.5502 25.8065 21.094V20.1577H25.8624C26.386 20.1577 26.812 20.5777 26.812 21.094V21.9752C26.812 22.4314 27.1871 22.8013 27.6499 22.8013C28.1126 22.8013 28.4877 22.4314 28.4877 21.9752V21.9201H31.1917C30.5091 28.4355 25.9747 33.486 20.5 33.486C15.0253 33.486 10.4909 28.4355 9.80827 21.9201ZM28.8768 37.0959C27.3565 40.0961 26.2448 42.2889 25.64 43.4807C24.3382 42.1178 23.6349 41.1155 23.3026 40.5821L27.8028 35.4055L28.5538 35.899C28.9513 36.1604 29.0902 36.6749 28.8768 37.0959ZM31.6394 30.7057C32.2829 32.1531 32.9459 33.6465 33.0528 36.2207L30.2441 35.2976C30.0527 34.9978 29.7985 34.7317 29.4834 34.5245L28.4877 33.8699V31.6685C28.4877 31.6644 28.4872 31.6605 28.4872 31.6566C29.3732 30.7672 30.1551 29.7337 30.8068 28.5856C31.0399 29.3549 31.3418 30.0362 31.6394 30.7057ZM7.03815 16.6879C7.03815 13.063 8.49169 9.30337 11.0261 6.37302C13.6589 3.32877 17.0235 1.65227 20.5 1.65227C23.9765 1.65227 27.3411 3.32877 29.9739 6.37302C32.5083 9.30337 33.9619 13.063 33.9619 16.6879C33.9619 18.5099 33.6373 19.5744 32.9498 20.6772C32.9537 20.5229 32.9564 20.3682 32.9564 20.2127C32.9564 18.6511 32.7369 17.0719 32.3039 15.5186C32.207 15.1713 31.8931 14.9259 31.5281 14.912C30.5279 14.8743 27.1652 14.5081 23.6625 13.2845C18.1905 11.3728 15.9335 8.61955 15.0038 6.64652C14.8087 6.23279 14.3106 6.05314 13.8908 6.24535C13.4711 6.43768 13.289 6.92895 13.484 7.34268C13.8208 8.05745 14.2372 8.73576 14.7325 9.3775C12.43 10.741 8.0436 14.3973 8.0436 20.2127C8.0436 20.3623 8.04594 20.5113 8.04963 20.6597C7.37598 19.5567 7.03815 18.4603 7.03815 16.6879ZM12.4462 35.8992L13.1972 35.4056L17.6973 40.582C17.3641 41.117 16.6611 42.1187 15.3601 43.4809C14.7553 42.2889 13.6437 40.0961 12.1233 37.0961C11.9098 36.6749 12.0487 36.1604 12.4462 35.8992ZM1.67575 48.4114V43.9601C1.67575 42.1767 2.74923 40.5684 4.41046 39.8628L5.55522 39.3767L6.29747 41.6182C6.38695 41.8884 6.61105 42.0943 6.89079 42.1632L9.31225 42.7601L8.18436 44.4284C8.01611 44.6771 7.99735 44.9961 8.13532 45.2623L10.2512 49.3477H7.93188V47.5302C7.93188 47.074 7.55674 46.7041 7.09401 46.7041C6.63128 46.7041 6.25613 47.074 6.25613 47.5302V49.3477H2.62534C2.10172 49.3477 1.67575 48.9277 1.67575 48.4114ZM39.3242 48.4114C39.3242 48.9277 38.8983 49.3477 38.3747 49.3477H34.7439V47.5302C34.7439 47.074 34.3687 46.7041 33.906 46.7041C33.4433 46.7041 33.0681 47.074 33.0681 47.5302V49.3477H30.7488L32.8647 45.2623C33.0027 44.9961 32.9839 44.6771 32.8156 44.4284L31.6876 42.7601L34.1091 42.1632C34.3888 42.0944 34.6129 41.8884 34.7024 41.6182L35.4447 39.3767L36.5894 39.8628C38.2508 40.5684 39.3242 42.1767 39.3242 43.9601V48.4114Z" fill="#D7B46A"/>
<path d="M16.4536 28.8025C17.4466 29.4688 18.9215 29.851 20.4999 29.851C22.0782 29.851 23.5531 29.4688 24.5461 28.8025C24.9287 28.5457 25.0278 28.0318 24.7674 27.6547C24.507 27.2774 23.9859 27.1799 23.6033 27.4365C22.8919 27.9138 21.7317 28.1987 20.4997 28.1987C19.2677 28.1987 18.1076 27.9138 17.3961 27.4365C17.0135 27.1798 16.4925 27.2775 16.2321 27.6547C15.9719 28.0318 16.071 28.5457 16.4536 28.8025Z" fill="#D7B46A"/>
</g>
<defs>
<clipPath id="clip0_82_145">
<rect width="41" height="51" fill="white"/>
</clipPath>
</defs>
</svg>
