<svg width="32" height="32" viewBox="0 0 32 32" fill="none" xmlns="http://www.w3.org/2000/svg">
<path d="M22.2562 13.697C21.934 12.8219 21.4318 12.024 20.782 11.3551C20.1322 10.6861 19.3493 10.1609 18.4839 9.81348" stroke="white" stroke-width="2" stroke-linecap="round"/>
<path d="M27.5912 12.894C27.0461 10.8593 25.9749 9.004 24.4854 7.51452C22.9959 6.02504 21.1406 4.95388 19.106 4.40869" stroke="white" stroke-width="2" stroke-linecap="round"/>
<path fill-rule="evenodd" clip-rule="evenodd" d="M12.7269 11.5238C13.2649 13.4675 12.6598 15.4952 11.334 16.7451C11.0826 16.9821 11.0016 17.3652 11.1991 17.6487C11.6195 18.2522 12.0976 18.8258 12.6337 19.3623C13.1689 19.898 13.7412 20.3759 14.3432 20.7961C14.6275 20.9945 15.0117 20.9122 15.2484 20.6588C16.4962 19.3224 18.5298 18.7107 20.4788 19.2509C23.1059 19.9791 24.5845 22.5242 23.7814 24.9357C21.428 32.0023 12.3673 24.9981 9.68468 22.3135C6.93725 19.564 0.0407025 10.5554 7.04633 8.21881C9.45602 7.41506 11.9993 8.89477 12.7269 11.5238Z" stroke="white" stroke-width="2"/>
</svg>
