<svg width="40" height="40" viewBox="0 0 40 40" fill="none" xmlns="http://www.w3.org/2000/svg">
<path d="M3.44977 7.66666C4.7831 1.89999 13.4664 1.89999 14.7831 7.66666C15.5664 11.05 13.4164 13.9167 11.5498 15.7C10.1831 17 8.0331 16.9833 6.66643 15.7C4.81643 13.9167 2.66643 11.05 3.44977 7.66666ZM25.1164 27.6667C26.4498 21.9 35.1831 21.9 36.5164 27.6667C37.2998 31.05 35.1498 33.9167 33.2664 35.7C31.8998 37 29.7331 36.9833 28.3664 35.7C26.4831 33.9167 24.3331 31.05 25.1164 27.6667Z" stroke="black" stroke-width="2"/>
<path d="M19.9998 8.33333H24.4665C27.5498 8.33333 28.9832 12.15 26.6665 14.1833L13.3498 25.8333C11.0332 27.85 12.4665 31.6667 15.5332 31.6667H19.9998" stroke="black" stroke-width="2" stroke-linecap="round" stroke-linejoin="round"/>
<path d="M9.14355 9.16667H9.16355M30.8102 29.1667H30.8302" stroke="black" stroke-width="2" stroke-linecap="round" stroke-linejoin="round"/>
</svg>
