<svg width="60" height="60" viewBox="0 0 60 60" fill="none" xmlns="http://www.w3.org/2000/svg">
<path d="M14.5313 19.4876V40.5132C12.3817 40.9761 10.4794 42.2178 9.19048 43.9993C7.9016 45.7808 7.3173 47.9761 7.55006 50.1626C7.78283 52.3491 8.81621 54.3722 10.4513 55.8425C12.0863 57.3127 14.2074 58.1261 16.4063 58.1261C18.6051 58.1261 20.7262 57.3127 22.3613 55.8425C23.9963 54.3722 25.0297 52.3491 25.2625 50.1626C25.4952 47.9761 24.9109 45.7808 23.6221 43.9993C22.3332 42.2178 20.4308 40.9761 18.2813 40.5132V33.0473H36.0938C38.5793 33.0445 40.9622 32.0558 42.7198 30.2983C44.4773 28.5408 45.466 26.1578 45.4688 23.6723V19.3728C47.5892 18.7938 49.4205 17.4509 50.6103 15.6026C51.8 13.7543 52.2641 11.5313 51.9131 9.36145C51.5622 7.19157 50.4211 5.22817 48.7094 3.84916C46.9977 2.47014 44.8364 1.77298 42.6416 1.89184C40.4467 2.01071 38.3734 2.9372 36.8206 4.49301C35.2679 6.04881 34.3455 8.12396 34.2309 10.3191C34.1164 12.5141 34.8178 14.674 36.2002 16.383C37.5826 18.092 39.5482 19.2292 41.7188 19.5759V23.6723C41.7171 25.1636 41.1239 26.5934 40.0694 27.6479C39.0148 28.7024 37.5851 29.2956 36.0938 29.2973H18.2813V19.4876C20.4308 19.0247 22.3332 17.783 23.6221 16.0015C24.9109 14.22 25.4952 12.0247 25.2625 9.83821C25.0297 7.65171 23.9963 5.62861 22.3613 4.15839C20.7262 2.68817 18.6051 1.87476 16.4063 1.87476C14.2074 1.87476 12.0863 2.68817 10.4513 4.15839C8.81621 5.62861 7.78283 7.65171 7.55006 9.83821C7.3173 12.0247 7.9016 14.22 9.19048 16.0015C10.4794 17.783 12.3817 19.0247 14.5313 19.4876ZM37.9688 10.7817C37.9688 9.76186 38.2712 8.76496 38.8378 7.91701C39.4043 7.06907 40.2096 6.40818 41.1518 6.01792C42.094 5.62766 43.1307 5.52554 44.131 5.7245C45.1312 5.92345 46.0499 6.41454 46.771 7.13565C47.4922 7.85677 47.9832 8.77552 48.1822 9.77574C48.3811 10.776 48.279 11.8127 47.8888 12.7549C47.4985 13.6971 46.8376 14.5024 45.9897 15.0689C45.1417 15.6355 44.1448 15.9379 43.125 15.9379C41.758 15.9364 40.4473 15.3927 39.4807 14.426C38.514 13.4594 37.9703 12.1487 37.9688 10.7817ZM21.5625 49.2192C21.5625 50.239 21.2601 51.2359 20.6935 52.0838C20.127 52.9318 19.3217 53.5927 18.3795 53.9829C17.4373 54.3732 16.4006 54.4753 15.4003 54.2763C14.4001 54.0774 13.4814 53.5863 12.7603 52.8652C12.0391 52.1441 11.5481 51.2253 11.3491 50.2251C11.1501 49.2249 11.2523 48.1881 11.6425 47.246C12.0328 46.3038 12.6937 45.4985 13.5416 44.9319C14.3896 44.3653 15.3865 44.0629 16.4063 44.0629C17.7733 44.0644 19.084 44.6082 20.0506 45.5748C21.0173 46.5415 21.561 47.8521 21.5625 49.2192ZM16.4063 5.62542C17.4261 5.62542 18.423 5.92783 19.2709 6.49441C20.1189 7.06098 20.7798 7.86628 21.17 8.80846C21.5603 9.75064 21.6624 10.7874 21.4634 11.7876C21.2645 12.7878 20.7734 13.7066 20.0523 14.4277C19.3312 15.1488 18.4124 15.6399 17.4122 15.8388C16.412 16.0378 15.3752 15.9357 14.4331 15.5454C13.4909 15.1552 12.6856 14.4943 12.119 13.6463C11.5524 12.7984 11.25 11.8015 11.25 10.7817C11.2515 9.41462 11.7953 8.10399 12.7619 7.13733C13.7286 6.17068 15.0392 5.62694 16.4063 5.62542Z" fill="#D7B46A"/>
</svg>
