<svg width="60" height="60" viewBox="0 0 60 60" fill="none" xmlns="http://www.w3.org/2000/svg">
<path d="M54.2044 37.0659L46.6641 32.1323L49.5673 26.8099C50.2675 25.4809 50.6344 24.0016 50.6363 22.4995V14.062C50.6421 11.6895 49.955 9.36702 48.6593 7.37964C47.3636 5.39226 45.5157 3.82653 43.3425 2.87471C41.1694 1.92289 38.7656 1.62642 36.4263 2.02171C34.087 2.41699 31.9141 3.48682 30.1743 5.09982L32.7229 7.85103C33.9284 6.73643 35.4329 5.99781 37.0521 5.72573C38.6712 5.45364 40.3345 5.65993 41.8381 6.31929C43.3417 6.97865 44.6202 8.06243 45.5169 9.43775C46.4136 10.8131 46.8895 12.4202 46.8863 14.062V22.4995C46.8859 23.3742 46.6764 24.2361 46.2752 25.0134L41.7147 33.3745L52.1512 40.2035C52.8401 40.6543 53.4054 41.2702 53.7957 41.9951C54.1861 42.72 54.3891 43.531 54.3863 44.3544V50.6245H45.9488V54.3745H58.1363V44.3542C58.14 42.908 57.7823 41.4837 57.0957 40.2109C56.409 38.938 55.4151 37.8569 54.2044 37.0659Z" fill="#D7B46A"/>
<path d="M37.329 40.8159L29.7888 35.8823L32.6919 30.5599C33.3921 29.2309 33.759 27.7516 33.7609 26.2495V17.812C33.7585 14.5779 32.4733 11.4768 30.1873 9.18902C27.9014 6.90128 24.8013 5.6137 21.5672 5.60876C14.8504 5.60876 9.3859 11.0832 9.3859 17.812V26.2495C9.37874 27.751 9.74158 29.2311 10.4423 30.559L13.3612 35.9103L5.86488 40.8159C4.65552 41.6057 3.66252 42.685 2.976 43.9558C2.28949 45.2266 1.93118 46.6488 1.93359 48.0932L1.875 58.1245H41.2609V48.1042C41.2647 46.658 40.907 45.2337 40.2203 43.9609C39.5336 42.688 38.5398 41.6069 37.329 40.8159ZM37.5109 54.3745H5.6468L5.68312 48.1042C5.68029 47.2809 5.88327 46.4699 6.27362 45.745C6.66397 45.0201 7.22931 44.4042 7.91824 43.9533L18.3107 37.1531L13.7344 28.7634C13.3377 27.985 13.1325 27.1231 13.1359 26.2495V17.812C13.1359 15.5742 14.0248 13.4281 15.6072 11.8458C17.1895 10.2634 19.3356 9.37447 21.5734 9.37447C23.8112 9.37447 25.9573 10.2634 27.5396 11.8458C29.122 13.4281 30.0109 15.5742 30.0109 17.812V26.2495C30.0105 27.1242 29.801 27.9861 29.3998 28.7634L24.8393 37.1245L35.2758 43.9534C35.9647 44.4043 36.53 45.0202 36.9204 45.7451C37.3107 46.47 37.5137 47.281 37.5109 48.1043V54.3745Z" fill="#D7B46A"/>
</svg>
