<svg width="98" height="98" viewBox="0 0 98 98" fill="none" xmlns="http://www.w3.org/2000/svg">
<path d="M84.5794 20.9871C84.0142 20.1808 83.2632 19.5224 82.3898 19.0677C81.5164 18.613 80.5463 18.3754 79.5617 18.375H9.1875C7.56361 18.3768 6.00675 19.0227 4.85849 20.171C3.71022 21.3193 3.06432 22.8761 3.0625 24.5V71.9688H10.9259C11.4639 74.9743 13.0418 77.6949 15.3834 79.6545C17.725 81.614 20.681 82.6878 23.7344 82.6878C26.7877 82.6878 29.7438 81.614 32.0854 79.6545C34.4269 77.6949 36.0048 74.9743 36.5429 71.9688H59.9259C60.4639 74.9743 62.0418 77.6949 64.3834 79.6545C66.725 81.614 69.681 82.6878 72.7344 82.6878C75.7877 82.6878 78.7438 81.614 81.0854 79.6545C83.4269 77.6949 85.0048 74.9743 85.5429 71.9688H94.9375V37.2325C94.9389 36.2898 94.6489 35.3697 94.1072 34.5982L84.5794 20.9871ZM34.4531 24.5H62.0156V42.875H34.4531V24.5ZM9.1875 24.5H28.3281V42.875H9.1875V24.5ZM23.7344 76.5625C22.3715 76.5625 21.0393 76.1584 19.9062 75.4012C18.773 74.6441 17.8898 73.5679 17.3683 72.3088C16.8467 71.0497 16.7103 69.6642 16.9762 68.3276C17.242 66.9909 17.8983 65.7631 18.862 64.7995C19.8256 63.8358 21.0534 63.1795 22.3901 62.9137C23.7267 62.6478 25.1122 62.7842 26.3713 63.3058C27.6304 63.8273 28.7066 64.7105 29.4637 65.8437C30.2209 66.9768 30.625 68.309 30.625 69.6719C30.623 71.4988 29.8964 73.2502 28.6045 74.542C27.3127 75.8338 25.5613 76.5605 23.7344 76.5625ZM72.7344 76.5625C71.3715 76.5625 70.0393 76.1584 68.9062 75.4012C67.773 74.6441 66.8898 73.5679 66.3683 72.3088C65.8467 71.0497 65.7103 69.6642 65.9762 68.3276C66.242 66.9909 66.8983 65.7631 67.862 64.7995C68.8256 63.8358 70.0534 63.1795 71.3901 62.9137C72.7267 62.6478 74.1122 62.7842 75.3713 63.3058C76.6304 63.8273 77.7066 64.7105 78.4637 65.8437C79.2209 66.9768 79.625 68.309 79.625 69.6719C79.623 71.4988 78.8964 73.2502 77.6046 74.542C76.3127 75.8338 74.5613 76.5605 72.7344 76.5625ZM88.8125 65.8438H85.1746C84.3562 63.1832 82.7063 60.8552 80.4673 59.2014C78.2282 57.5476 75.518 56.6552 72.7344 56.6552C69.9508 56.6552 67.2405 57.5476 65.0015 59.2014C62.7625 60.8552 61.1126 63.1832 60.2941 65.8438H36.1746C35.3562 63.1832 33.7063 60.8552 31.4673 59.2014C29.2282 57.5476 26.518 56.6552 23.7344 56.6552C20.9508 56.6552 18.2405 57.5476 16.0015 59.2014C13.7625 60.8552 12.1126 63.1832 11.2941 65.8438H9.1875V49H88.8125V65.8438ZM88.8125 42.875H68.1406V24.5H79.5617L88.8125 37.7153V42.875Z" fill="white"/>
</svg>
