<svg width="60" height="60" viewBox="0 0 60 60" fill="none" xmlns="http://www.w3.org/2000/svg">
<path d="M14.5312 15.9375H4.21875C3.59737 15.9382 3.00164 16.1854 2.56226 16.6248C2.12287 17.0641 1.87571 17.6599 1.875 18.2812V55.7812C1.87571 56.4026 2.12287 56.9984 2.56226 57.4377C3.00164 57.8771 3.59737 58.1243 4.21875 58.125H14.5312C15.1526 58.1243 15.7484 57.8771 16.1877 57.4377C16.6271 56.9984 16.8743 56.4026 16.875 55.7812V18.2812C16.8743 17.6599 16.6271 17.0641 16.1877 16.6248C15.7484 16.1854 15.1526 15.9382 14.5312 15.9375ZM13.125 54.375H5.625V19.6875H13.125V54.375Z" fill="#D7B46A"/>
<path d="M35.1562 28.125H24.8438C24.2224 28.1257 23.6266 28.3729 23.1873 28.8123C22.7479 29.2516 22.5007 29.8474 22.5 30.4688V55.7812C22.5007 56.4026 22.7479 56.9984 23.1873 57.4377C23.6266 57.8771 24.2224 58.1243 24.8438 58.125H35.1562C35.7776 58.1243 36.3734 57.8771 36.8127 57.4377C37.2521 56.9984 37.4993 56.4026 37.5 55.7812V30.4688C37.4993 29.8474 37.2521 29.2516 36.8127 28.8123C36.3734 28.3729 35.7776 28.1257 35.1562 28.125ZM33.75 54.375H26.25V31.875H33.75V54.375Z" fill="#D7B46A"/>
<path d="M55.7812 1.875H45.4688C44.8474 1.87571 44.2516 2.12287 43.8123 2.56226C43.3729 3.00164 43.1257 3.59737 43.125 4.21875V55.7812C43.1257 56.4026 43.3729 56.9984 43.8123 57.4377C44.2516 57.8771 44.8474 58.1243 45.4688 58.125H55.7812C56.4026 58.1243 56.9984 57.8771 57.4377 57.4377C57.8771 56.9984 58.1243 56.4026 58.125 55.7812V4.21875C58.1243 3.59737 57.8771 3.00164 57.4377 2.56226C56.9984 2.12287 56.4026 1.87571 55.7812 1.875ZM54.375 54.375H46.875V5.625H54.375V54.375Z" fill="#D7B46A"/>
</svg>
