<svg width="38" height="38" fill="none" xmlns="http://www.w3.org/2000/svg"><path d="M7.546 29.688h26.892v-28.5H7.47a4.517 4.517 0 00-4.5 4.502v26.276c0 2.628 2.062 4.847 4.502 4.847h26.966v-2.376H7.471c-1.113 0-2.127-1.177-2.127-2.471 0-1.235 1.008-2.279 2.202-2.279zm19.173-26.1v12.825l-3.592-3.153-3.533 3.135V3.587h7.125zm-9.5-.026v16.032h2.348l3.568-3.166 3.606 3.166h2.353V3.562h2.968v23.75H10.1l-.006-23.75h7.125zm-9.748 0h.248l.005 23.75h-.179a4.43 4.43 0 00-2.201.586V5.708A2.14 2.14 0 017.47 3.563z" fill="#fff"/></svg>