<svg width="35" height="40" fill="none" xmlns="http://www.w3.org/2000/svg"><path d="M33.36 25a.515.515 0 00.386-.183.673.673 0 00.16-.442v-2.5a.673.673 0 00-.16-.442.515.515 0 00-.387-.183h-2.405a3.92 3.92 0 01-1.987-.551 4.582 4.582 0 01-1.547-1.528c-.564-.9-1.353-1.585-2.264-1.964v-1.582a.673.673 0 00-.16-.442.515.515 0 00-.387-.183h-2.187a.515.515 0 00-.387.183.673.673 0 00-.16.442v1.582c-.91.379-1.7 1.063-2.263 1.964a4.58 4.58 0 01-1.548 1.528 3.92 3.92 0 01-1.987.551h-2.405a.515.515 0 00-.387.183.673.673 0 00-.16.442v2.5c0 .166.058.325.16.442a.515.515 0 00.387.183h1.85l-1.094 2.5h-.756a.515.515 0 00-.387.183.673.673 0 00-.16.442v.313c0 1.077.374 2.11 1.041 2.872.667.762 1.57 1.19 2.514 1.19.942 0 1.847-.428 2.513-1.19.667-.762 1.041-1.795 1.041-2.872v-.313a.673.673 0 00-.16-.442.515.515 0 00-.387-.183h-.755L17.838 25h1.85c.099 0 .196-.03.28-.09l1.797-1.23c.037-.026.073-.05.11-.073v9.954L21.035 35h-1.894a.497.497 0 00-.288.093.601.601 0 00-.202.252l-1.093 2.5a.702.702 0 00.024.609c.049.09.117.165.198.217a.498.498 0 00.267.079h10.937a.495.495 0 00.267-.08.588.588 0 00.199-.216.7.7 0 00.024-.608l-1.094-2.5a.6.6 0 00-.202-.253.497.497 0 00-.287-.093h-1.895l-.84-1.44v-9.953c.037.023.074.047.11.072l1.796 1.232a.5.5 0 00.282.089h1.85l-1.095 2.5h-.755a.515.515 0 00-.387.183.673.673 0 00-.16.442v.313c0 1.077.374 2.11 1.041 2.872.667.762 1.57 1.19 2.514 1.19.942 0 1.847-.428 2.513-1.19.667-.762 1.041-1.795 1.041-2.872v-.313a.673.673 0 00-.16-.442.515.515 0 00-.387-.183h-.755L31.51 25h1.85zm-10.391-8.75h1.093v.661a4.137 4.137 0 00-1.093 0v-.661zm-6.29 15c-.604 0-1.188-.256-1.64-.717a2.967 2.967 0 01-.805-1.783h4.891a2.967 2.967 0 01-.805 1.783c-.451.46-1.035.716-1.64.717zm-1.028-3.75l1.029-2.352 1.029 2.352H15.65zm12.448 10h-9.167l.547-1.25h8.074l.546 1.25zm-3.945-3.403l.527.903H22.35l.527-.903a.69.69 0 00.092-.347V23.176a2.957 2.957 0 011.093 0V33.75a.69.69 0 00.092.347zm1.675-11.49a4.081 4.081 0 00-2.313-.732 4.08 4.08 0 00-2.313.732l-1.667 1.143h-5.317V22.5h1.858a4.906 4.906 0 002.487-.69 5.732 5.732 0 001.938-1.912 3.9 3.9 0 011.319-1.304 3.337 3.337 0 011.695-.469c.59 0 1.17.16 1.694.47a3.9 3.9 0 011.32 1.303 5.732 5.732 0 001.937 1.912c.77.452 1.622.689 2.487.69h1.858v1.25h-5.317l-1.666-1.143zm4.523 8.643c-.606 0-1.19-.256-1.64-.717a2.968 2.968 0 01-.806-1.783h4.891a2.967 2.967 0 01-.806 1.783c-.45.46-1.034.716-1.64.717zm-1.03-3.75l1.03-2.352L31.38 27.5h-2.059z" fill="#D7B46A"/><path d="M23.516 21.25c.604 0 1.093-.56 1.093-1.25s-.49-1.25-1.093-1.25c-.604 0-1.094.56-1.094 1.25s.49 1.25 1.094 1.25zm-13.126-15h5.47V7.5h-5.47V6.25zm-2.734 0H8.75V7.5H7.656V6.25zm3.282 4.375h4.921v1.25h-4.921v-1.25zm-6.016 0h4.922v1.25H4.922v-1.25zM13.672 15h7.11v1.25h-7.11V15zm-5.469 0h4.375v1.25H8.203V15zm-3.281 0h2.187v1.25H4.922V15zm0 4.375h7.11v1.25h-7.11v-1.25zM8.75 23.75h3.281V25H8.75v-1.25zm-3.828 0h2.187V25H4.922v-1.25zm0 4.375h7.11v1.25h-7.11v-1.25zM9.297 32.5h4.922v1.25H9.297V32.5zm-4.375 0h3.281v1.25H4.922V32.5z" fill="#D7B46A"/><path d="M2.734 38.75h13.672V37.5H2.734a.515.515 0 01-.386-.183.674.674 0 01-.16-.442V3.125a.67.67 0 01.16-.442.515.515 0 01.386-.183h14.954c.12 0 .241.015.359.045V8.75c0 .829.289 1.623.802 2.209.512.585 1.207.915 1.932.916h3.282v-1.25H20.78c-.435 0-.852-.198-1.16-.55a2.021 2.021 0 01-.48-1.325V3.384l6.628 7.576a1.9 1.9 0 01.357.608c.082.227.124.471.124.718v4.589h1.094v-4.59c0-.41-.07-.817-.207-1.196a3.165 3.165 0 00-.594-1.013l-6.922-7.91a2.725 2.725 0 00-.886-.68 2.424 2.424 0 00-1.047-.236H2.734c-.435 0-.852.198-1.16.55a2.02 2.02 0 00-.48 1.325v33.75c0 .497.173.974.48 1.325.308.352.725.55 1.16.55z" fill="#D7B46A"/></svg>