<svg width="41" height="51" fill="none" xmlns="http://www.w3.org/2000/svg"><g clip-path="url(#clip0_82_145)" fill="#D7B46A"><path d="M37.252 38.345l-1.317-.56a.827.827 0 00-.572-.805l-.62-.204c-.03-3.269-.846-5.108-1.569-6.734-.592-1.331-1.103-2.483-1.11-4.281.191-.572.354-1.16.486-1.765l.208-.26c1.795-2.265 2.88-3.631 2.88-7.048 0-4.012-1.6-8.162-4.39-11.387C28.294 1.883 24.476 0 20.5 0c-3.975 0-7.793 1.883-10.749 5.3-2.789 3.226-4.389 7.376-4.389 11.388 0 3.42 1.182 4.91 2.97 7.165l.119.15c.665 3.035 2.11 5.695 4.062 7.654v2.213l-.996.654c-.316.207-.57.474-.761.773L5.637 36.98a.827.827 0 00-.572.806l-1.317.56C1.47 39.311 0 41.515 0 43.96v4.451C0 49.84 1.178 51 2.625 51h35.75C39.822 51 41 49.839 41 48.411v-4.45c0-2.445-1.471-4.649-3.748-5.616zm-7.618 4.356l1.515 2.241-2.282 4.406H25.86c.088-1.275.305-2.831.813-4.172a.836.836 0 00.029-.096l.02-.04 1.301-2.564 2.353-4.642a2.55 2.55 0 00.231-.676l3.356 1.103a.824.824 0 00.031.174l-.74 2.236-3.126.77a.834.834 0 00-.578.504.816.816 0 00.084.756zm-17.501 6.647L9.85 44.942l1.515-2.24a.816.816 0 00.084-.757.834.834 0 00-.578-.504l-3.125-.77-.742-2.238a.822.822 0 00.03-.171l3.358-1.104c.044.23.12.458.23.676l2.354 4.642 1.3 2.564c.029.055.056.109.085.16.507 1.353.718 2.924.803 4.148h-3.032zm3.966-4.242c1.09-1.094 1.855-2.011 2.377-2.713l1.186 3.509v3.446h-2.818c-.079-1.221-.276-2.792-.745-4.242zm5.196.4l-1.788-5.287a.824.824 0 00-.154-.27l-.004-.006-.005-.005-.004-.005-5.152-5.926v-.932c1.852 1.31 4.01 2.063 6.312 2.063 2.302 0 4.46-.753 6.312-2.063v.931l-5.16 5.937a.817.817 0 00-.13.873c.032.07.777 1.684 3.398 4.309-.458 1.422-.658 2.963-.738 4.223h-2.844v-3.58a.816.816 0 00-.043-.261zM9.719 20.214c0-5.28 4.327-8.584 6.14-9.572 1.757 1.724 4.18 3.13 7.244 4.2 3.1 1.084 6.12 1.546 7.732 1.682.296 1.227.446 2.465.446 3.69v.058a.54.54 0 00-.056-.003H28.35a2.627 2.627 0 00-2.488-1.763h-1.787c-.947 0-1.78.498-2.241 1.242a2.636 2.636 0 00-1.334-.36c-.487 0-.943.131-1.334.36a2.634 2.634 0 00-2.24-1.242h-1.788c-1.155 0-2.137.74-2.488 1.763H9.775a.507.507 0 00-.055.003v-.058zm.09 1.707h2.703v.055c0 .456.375.826.838.826.463 0 .838-.37.838-.826v-.881c0-.516.426-.936.95-.936h.056v.936c0 .456.375.826.837.826.463 0 .838-.37.838-.826v-.936h.056c.524 0 .95.42.95.936v.881c0 .456.375.826.837.826.463 0 .838-.37.838-.826 0-.516.426-.936.95-.936s.95.42.95.936c0 .456.375.826.838.826.462 0 .837-.37.837-.826v-.881c0-.516.426-.936.95-.936h.056v.936c0 .456.375.826.838.826.462 0 .837-.37.837-.826v-.936h.056c.524 0 .95.42.95.936v.881c0 .456.375.826.838.826.463 0 .838-.37.838-.826v-.055h2.704c-.683 6.515-5.217 11.566-10.692 11.566-5.475 0-10.01-5.05-10.692-11.566zm19.068 15.176L25.64 43.48c-1.302-1.363-2.005-2.366-2.337-2.899l4.5-5.176.75.493a.93.93 0 01.324 1.197zm2.762-6.39c.644 1.447 1.307 2.94 1.414 5.515l-2.809-.923a2.589 2.589 0 00-.76-.773l-.996-.655v-2.213a14.461 14.461 0 002.319-3.071c.233.769.535 1.45.832 2.12zM7.04 16.688c0-3.625 1.453-7.385 3.987-10.315 2.633-3.044 5.997-4.72 9.474-4.72 3.477 0 6.841 1.676 9.474 4.72 2.534 2.93 3.988 6.69 3.988 10.315 0 1.822-.325 2.886-1.012 3.99a17.49 17.49 0 00-.646-5.159.836.836 0 00-.776-.607c-1-.038-4.363-.404-7.865-1.628-5.473-1.911-7.73-4.664-8.66-6.637a.843.843 0 00-1.112-.402.821.821 0 00-.407 1.098c.337.714.753 1.393 1.248 2.034-2.302 1.364-6.688 5.02-6.688 10.836 0 .15.002.298.006.447-.674-1.103-1.012-2.2-1.012-3.972zm5.407 19.211l.751-.493 4.5 5.176c-.333.535-1.036 1.537-2.337 2.899l-3.237-6.385a.93.93 0 01.323-1.197zM1.676 48.411v-4.45a4.456 4.456 0 012.734-4.098l1.145-.486.742 2.241c.09.27.314.476.594.545l2.421.597-1.128 1.668a.816.816 0 00-.049.834l2.116 4.086h-2.32V47.53a.832.832 0 00-.837-.826.832.832 0 00-.838.826v1.818h-3.63a.944.944 0 01-.95-.937zm37.648 0a.944.944 0 01-.95.937h-3.63V47.53a.832.832 0 00-.838-.826.832.832 0 00-.838.826v1.818h-2.32l2.117-4.086a.816.816 0 00-.05-.834l-1.127-1.668 2.421-.597a.833.833 0 00.593-.545l.743-2.241 1.144.486a4.456 4.456 0 012.735 4.097v4.451z"/><path d="M16.454 28.802c.993.667 2.468 1.049 4.046 1.049 1.578 0 3.053-.382 4.046-1.049a.819.819 0 00.221-1.147.845.845 0 00-1.164-.219c-.711.478-1.871.763-3.103.763-1.232 0-2.392-.285-3.104-.763a.845.845 0 00-1.164.219.82.82 0 00.222 1.147z"/></g><defs><clipPath id="clip0_82_145"><path fill="#fff" d="M0 0h41v51H0z"/></clipPath></defs></svg>