<svg width="38" height="51" fill="none" xmlns="http://www.w3.org/2000/svg"><g clip-path="url(#clip0_82_148)" fill="#D7B46A"><path d="M35.334 0H9.925l-.029.001a1.213 1.213 0 00-.135.015h-.002a.854.854 0 00-.11.03l-.02.006a.856.856 0 00-.098.042l-.006.003a.851.851 0 00-.095.058L9.41.17a.855.855 0 00-.086.072L.249 9.054a.84.84 0 00-.074.084l-.015.02a.824.824 0 00-.06.091l-.003.007a.822.822 0 00-.043.095l-.007.019a.794.794 0 00-.03.106l-.001.004A.83.83 0 000 9.61v38.802C0 49.84 1.196 51 2.666 51h32.668C36.804 51 38 49.839 38 48.411V2.59C38 1.16 36.804 0 35.334 0zM9.074 2.82v5.056c0 .516-.432.936-.964.936H2.905l6.17-5.991zm27.224 45.591c0 .517-.432.937-.964.937H2.666c-.532 0-.965-.42-.965-.937V10.464h6.41c1.47 0 2.665-1.16 2.665-2.588V1.652h24.558c.532 0 .964.42.964.937V48.41z"/><path d="M8.11 23.683h21.78c.47 0 .85-.37.85-.827a.839.839 0 00-.85-.826H8.11c-.47 0-.85.37-.85.826 0 .457.38.826.85.826zm0 4.405h21.78c.47 0 .85-.37.85-.826a.839.839 0 00-.85-.826H8.11c-.47 0-.85.37-.85.826 0 .457.38.826.85.826zm0 4.407H19c.47 0 .85-.37.85-.826a.839.839 0 00-.85-.827H8.11c-.47 0-.85.37-.85.827 0 .456.38.826.85.826zm11.74 3.58a.839.839 0 00-.85-.827H8.11c-.47 0-.85.37-.85.827 0 .456.38.826.85.826H19c.47 0 .85-.37.85-.827zm3.63-21.81a.839.839 0 00-.85-.827c-.47 0-.85.37-.85.827 0 1.61 1.537 2.911 3.63 3.192v.112c0 .456.38.826.85.826s.85-.37.85-.826v-.112c2.093-.28 3.63-1.582 3.63-3.192s-1.537-2.912-3.63-3.193V7.908c1.025.207 1.929.77 1.929 1.51 0 .456.38.826.85.826s.852-.37.852-.826c0-1.61-1.538-2.912-3.63-3.193v-.112a.839.839 0 00-.851-.826c-.47 0-.85.37-.85.826v.112c-2.093.281-3.63 1.582-3.63 3.193 0 1.61 1.537 2.912 3.63 3.192v3.165c-1.026-.208-1.93-.771-1.93-1.51zm5.559 0c0 .739-.904 1.302-1.928 1.51v-3.02c1.024.207 1.928.77 1.928 1.51zm-5.558-4.847c0-.74.903-1.303 1.928-1.51v3.02c-1.025-.208-1.928-.77-1.928-1.51zm8.083 25.884a.864.864 0 00-1.16.313l-1.748 3.007-.24-.18a.87.87 0 00-.712-.15.847.847 0 00-.57.44l-.884 1.737-.284-.316a1.77 1.77 0 00-1.66-.554 1.726 1.726 0 00-1.326 1.116l-.976 2.728-2.322-2.849a.871.871 0 00-1.226-.11l-2.466 2.089a.81.81 0 00-.082 1.166.869.869 0 001.2.08l1.793-1.52 2.218 2.72a1.32 1.32 0 001.24.463c.47-.078.859-.397 1.015-.833l1.213-3.392c.005-.012.011-.03.043-.036.032-.006.045.009.054.018l1.122 1.25a.865.865 0 001.404-.177l.99-1.945.194.145a.872.872 0 00.689.155.85.85 0 00.571-.403l2.232-3.836a.814.814 0 00-.322-1.126z"/></g><defs><clipPath id="clip0_82_148"><path fill="#fff" d="M0 0h38v51H0z"/></clipPath></defs></svg>