<svg width="32" height="32" fill="none" xmlns="http://www.w3.org/2000/svg"><path d="M22.256 13.697a6.667 6.667 0 00-3.772-3.884m9.107 3.081a11.999 11.999 0 00-8.485-8.485" stroke="#fff" stroke-width="2" stroke-linecap="round"/><path clip-rule="evenodd" d="M12.727 11.524c.538 1.944-.067 3.971-1.393 5.221-.251.237-.332.62-.135.904a12.663 12.663 0 003.144 3.147c.284.198.669.116.905-.137 1.248-1.337 3.282-1.948 5.23-1.408 2.628.728 4.106 3.273 3.303 5.685-2.353 7.066-11.414.062-14.096-2.622C6.937 19.564.04 10.555 7.046 8.219c2.41-.804 4.953.676 5.68 3.305z" stroke="#fff" stroke-width="2"/></svg>