<svg width="60" height="60" fill="none" xmlns="http://www.w3.org/2000/svg"><path d="M54.204 37.066l-7.54-4.934 2.903-5.322a9.273 9.273 0 001.07-4.31v-8.438A12.18 12.18 0 0030.173 5.1l2.549 2.751a8.436 8.436 0 0114.163 6.211V22.5c0 .874-.21 1.736-.61 2.513l-4.561 8.361 10.436 6.83a4.94 4.94 0 012.235 4.15v6.27H45.95v3.75h12.187v-10.02a8.68 8.68 0 00-3.932-7.288z" fill="#D7B46A"/><path d="M37.329 40.816l-7.54-4.934 2.903-5.322a9.273 9.273 0 001.069-4.31v-8.438A12.212 12.212 0 0021.567 5.609c-6.717 0-12.181 5.474-12.181 12.203v8.438a9.14 9.14 0 001.056 4.309l2.92 5.351-7.497 4.906a8.675 8.675 0 00-3.931 7.277l-.059 10.031h39.386v-10.02a8.678 8.678 0 00-3.932-7.288zm.182 13.558H5.647l.036-6.27a4.94 4.94 0 012.235-4.15l10.393-6.8-4.577-8.39a5.49 5.49 0 01-.598-2.514v-8.438a8.437 8.437 0 1116.875 0v8.438c0 .874-.21 1.736-.611 2.513l-4.56 8.361 10.436 6.83a4.942 4.942 0 012.235 4.15v6.27z" fill="#D7B46A"/></svg>