<svg width="30" height="30" fill="none" xmlns="http://www.w3.org/2000/svg"><g clip-path="url(#clip0_74_130)"><path d="M21.87 17.978c-.376-.19-2.207-1.083-2.55-1.21-.341-.123-.59-.186-.84.19-.243.366-.96 1.205-1.18 1.45-.22.244-.435.263-.806.097-.376-.19-1.576-.58-3.002-1.86-1.114-.99-1.856-2.211-2.076-2.587-.22-.371-.024-.581.161-.767.17-.17.376-.43.566-.654.181-.225.24-.376.372-.62.122-.264.059-.469-.034-.654-.093-.186-.84-2.026-1.152-2.76-.298-.727-.61-.634-.84-.634-.215-.02-.464-.02-.713-.02a1.41 1.41 0 00-.996.45c-.342.375-1.31 1.273-1.31 3.09 0 1.822 1.339 3.584 1.524 3.848.19.243 2.632 3.993 6.377 5.605.894.376 1.587.6 2.13.786.893.284 1.708.244 2.352.151.713-.117 2.207-.903 2.52-1.782.318-.884.318-1.616.225-1.782-.092-.17-.336-.263-.712-.43l-.016.093zm-6.792 9.21h-.02c-2.217 0-4.409-.601-6.323-1.725l-.45-.268-4.687 1.22 1.26-4.56-.303-.469a12.343 12.343 0 01-1.894-6.572c0-6.806 5.571-12.358 12.426-12.358 3.32 0 6.436 1.294 8.78 3.638a12.242 12.242 0 013.637 8.74c-.009 6.802-5.576 12.354-12.422 12.354h-.004zM25.649 4.311C22.797 1.557 19.047 0 15.06 0 6.83 0 .13 6.67.126 14.868a14.8 14.8 0 001.992 7.431L0 30l7.92-2.065a15.122 15.122 0 007.14 1.81h.004c8.232 0 14.931-6.67 14.936-14.873A14.73 14.73 0 0025.63 4.36l.02-.047z" fill="#fff"/></g><defs><clipPath id="clip0_74_130"><path fill="#fff" d="M0 0h30v30H0z"/></clipPath></defs></svg>